# xmcd
#
# Track frame offsets: 
#        151
#        13835
#        31118
#        42420
#        56420
#        72296
#        85606
#        96702
#        106131
#        121155
#        138194
#        152539
#        167545
#        179971
#
# Disc length: 2597 seconds
#
# Revision: 0
# Processed by: cddbd v1.5PL3 Copyright (c) Steve Scherf et al.
# Submitted via: ExactAudioCopy v0.95a5
#
DISCID=b30a230e
DTITLE=Jesse McReynolds and the Virginia Boys - New Horizons
DYEAR=2004
DGENRE=Bluegrass
TTITLE0=There's More Pretty Girls Than One
TTITLE1=I Won't Be Blue Anymore
TTITLE2=Take Me Back Into Your Heart
TTITLE3=In The Pines
TTITLE4=Faded Love
TTITLE5=Showboat Gambler
TTITLE6=You'll Find Her Name Written There
TTITLE7=She's Coming Home Tonight
TTITLE8=The Anniversary Song
TTITLE9=America On Bended Knees
TTITLE10=She's Looking Good
TTITLE11=My Main Trial is Yet To Come
TTITLE12=New Partner Waltz
TTITLE13=Paradise
EXTD=
EXTT0=
EXTT1=
EXTT2=
EXTT3=
EXTT4=
EXTT5=
EXTT6=
EXTT7=
EXTT8=
EXTT9=
EXTT10=
EXTT11=
EXTT12=
EXTT13=
PLAYORDER=
